<?xml version="1.0" encoding="utf-8"?>
<!-- Generator: Adobe Illustrator 28.0.0, SVG Export Plug-In . SVG Version: 6.00 Build 0)  -->
<svg version="1.1" id="Layer_1" xmlns="http://www.w3.org/2000/svg" xmlns:xlink="http://www.w3.org/1999/xlink" x="0px" y="0px"
	 width="50px" height="50px" viewBox="0 0 50 50" enable-background="new 0 0 50 50" xml:space="preserve">
<path fill="#FFFFFF" d="M25,50L25,50C11.193,50,0,38.807,0,25v0C0,11.193,11.193,0,25,0h0c13.807,0,25,11.193,25,25v0
	C50,38.807,38.807,50,25,50z"/>
<g transform="translate(0.000000,1118.000000) scale(0.100000,-0.100000)">
	<path d="M9.906,10861.97c6.621-3.138,31.658,40.111,37.871,45.457c22.32,23.712,41.651,5.174,65.004-15.183
		c14.843-14.054,31.886-32.635,54.121-28.804c12.344,1.417,20.56,11.351,29.107,19.566c13.39,12.877,27.763,29.714,42.278,43.581
		c14.081,12.62,31.283,30.09,49.744,24.532c1.297-0.39,2.511-1.06,3.622-1.849c28.056-19.928,50.392-47.589,76.099-70.49
		c29.069-29.567,48.955-15.434,73.771,10.399c18.601,19.958,41.027,38.501,56.281,61.457c0.952,1.996-3.187-0.708-3.607-0.965
		c-23.422-15.093-43.284,1.716-61.596,19.034c-23.63,20.075-53.026,71.808-87.187,61.769c-0.779-0.229-1.554-0.539-2.289-0.889
		c-32.221-15.333-51.918-48.906-78.553-71.729c-39.375-39.128-68.948,21.827-100.367,41.102
		c-57.412,42.518-130.467-95.604-135.431-102.966C15.168,10875.815,7.598,10863.589,9.906,10861.97z"/>
</g>
</svg>
