<?xml version="1.0" encoding="utf-8"?>
<!-- Generator: Adobe Illustrator 28.1.0, SVG Export Plug-In . SVG Version: 6.00 Build 0)  -->
<svg version="1.2" baseProfile="tiny" id="Layer_1" xmlns="http://www.w3.org/2000/svg" xmlns:xlink="http://www.w3.org/1999/xlink"
	 x="0px" y="0px" width="1209.508px" height="1209.827px" viewBox="0 0 1209.508 1209.827" overflow="visible" xml:space="preserve"
	>
<rect y="0.31" width="1209.508" height="1209.508"/>
<path fill="#FFFFFF" d="M1014.086,287.918c-31.51-20.205-72.401-30.308-122.673-30.308c-46.303,0-87.435,9.862-123.395,29.586
	s-66.268,48.769-90.862,87.194c-14.793-38.426-38.426-67.47-70.958-87.194c-32.472-19.724-73.905-29.586-124.116-29.586
	c-45.341,0-84.248,9.862-116.78,29.586c-32.472,19.724-58.631,48.288-78.294,85.691V272.403H102.275v679.814h184.731V538.436
	c0-29.586,4.931-54.902,14.793-76.13c9.802-21.167,23.633-36.922,41.372-47.265c17.74-10.343,38.426-15.515,62.058-15.515
	c35.479,0,61.096,11.546,76.851,34.697c15.755,23.152,23.633,57.909,23.633,104.212v413.782h190.625V538.436
	c0-29.586,4.931-54.902,14.793-76.13c9.862-21.167,23.633-36.922,41.372-47.265c17.74-10.343,38.426-15.515,62.058-15.515
	c35.479,0,61.096,11.546,76.851,34.697c15.755,23.152,23.693,57.909,23.693,104.212v413.782h192.128V517.749
	c0-55.203-7.697-102.228-22.911-141.134C1068.988,337.708,1045.596,308.123,1014.086,287.918z"/>
</svg>
