<?xml version="1.0" standalone="no"?>
<!DOCTYPE svg PUBLIC "-//W3C//DTD SVG 20010904//EN"
 "http://www.w3.org/TR/2001/REC-SVG-20010904/DTD/svg10.dtd">
<svg version="1.0" xmlns="http://www.w3.org/2000/svg"
 width="1240.000000pt" height="1118.000000pt" viewBox="0 0 1240.000000 1118.000000"
 preserveAspectRatio="xMidYMid meet">

<g transform="translate(0.000000,1118.000000) scale(0.100000,-0.100000)"
fill="#000000" stroke="none">
<path d="M3565 7655 c-22 -7 -56 -14 -76 -14 -54 -1 -232 -82 -349 -159 -32
-21 -385 -365 -834 -812 -1044 -1040 -976 -970 -976 -989 0 -6 -7 -11 -15 -11
-9 0 -18 -7 -21 -15 -4 -8 -10 -15 -16 -15 -9 0 -76 -67 -176 -174 -23 -25
-47 -46 -52 -46 -6 0 -10 -7 -10 -15 0 -8 4 -15 9 -15 11 0 121 101 185 170
71 77 158 160 167 160 5 0 29 20 53 44 25 24 65 55 89 69 23 14 67 41 97 61
30 20 59 36 65 36 9 0 71 23 150 55 67 28 378 25 431 -3 11 -6 39 -17 64 -26
45 -16 100 -48 207 -120 32 -22 189 -169 348 -327 396 -393 834 -822 845 -829
5 -3 63 -57 128 -120 66 -63 130 -124 143 -135 68 -58 277 -175 313 -175 9 0
31 -7 49 -17 24 -12 68 -17 177 -21 179 -5 230 4 366 65 117 52 216 142 884
807 747 744 734 732 895 810 44 21 93 44 108 52 16 8 37 14 48 14 10 0 46 9
80 21 51 18 78 20 167 17 123 -5 191 -24 332 -92 115 -55 181 -116 860 -792
716 -712 737 -731 903 -818 117 -61 188 -78 342 -83 176 -6 246 6 360 65 132
67 201 128 560 490 198 199 552 557 788 794 235 237 427 434 427 439 0 4 6 9
13 12 6 2 9 7 6 11 -7 8 -89 -32 -89 -43 0 -6 -21 -17 -128 -70 -23 -11 -49
-21 -58 -21 -8 0 -27 -8 -41 -17 -39 -26 -382 -25 -428 0 -16 9 -36 17 -44 17
-25 0 -165 73 -254 133 -93 63 -267 230 -1017 974 -448 444 -464 460 -540 511
-30 20 -57 39 -60 43 -8 11 -116 59 -131 59 -8 0 -20 5 -26 11 -14 14 -135 39
-219 46 -40 3 -80 -1 -114 -11 -30 -9 -68 -16 -86 -16 -19 0 -50 -7 -71 -16
-67 -30 -208 -98 -218 -106 -5 -5 -32 -23 -60 -40 -28 -18 -354 -335 -735
-715 -377 -375 -699 -693 -717 -705 -94 -69 -195 -128 -218 -128 -5 0 -23 -7
-40 -16 -16 -9 -57 -20 -90 -25 -33 -4 -80 -12 -105 -16 -25 -5 -70 -5 -100 0
-30 4 -85 12 -121 16 -37 5 -77 16 -90 25 -13 9 -33 16 -45 16 -12 0 -27 7
-34 15 -7 8 -18 15 -26 15 -17 0 -85 37 -156 83 -31 21 -347 328 -729 710
-390 389 -700 691 -736 717 -35 23 -63 46 -63 50 0 8 -148 82 -205 103 -109
40 -271 55 -340 32z"/>
<path d="M1010 5370 c0 -5 4 -10 9 -10 6 0 13 5 16 10 3 6 -1 10 -9 10 -9 0
-16 -4 -16 -10z"/>
<path d="M974 5335 c-4 -8 -10 -15 -15 -15 -12 0 -129 -118 -129 -130 0 -5 -7
-13 -16 -18 -9 -5 -15 -14 -13 -21 8 -23 199 161 199 191 0 14 -20 8 -26 -7z"/>
<path d="M760 5120 c0 -5 4 -10 9 -10 6 0 13 5 16 10 3 6 -1 10 -9 10 -9 0
-16 -4 -16 -10z"/>
<path d="M616 4975 c-3 -8 -12 -15 -21 -15 -8 0 -15 -6 -15 -14 0 -7 -10 -20
-22 -28 -13 -9 -18 -19 -14 -26 5 -9 22 2 52 34 24 26 44 51 44 56 0 14 -18 9
-24 -7z"/>
</g>
</svg>
