<?xml version="1.0" standalone="no"?>
<!DOCTYPE svg PUBLIC "-//W3C//DTD SVG 20010904//EN"
 "http://www.w3.org/TR/2001/REC-SVG-20010904/DTD/svg10.dtd">
<svg version="1.0" xmlns="http://www.w3.org/2000/svg"
 width="700.000000pt" height="700.000000pt" viewBox="0 0 700.000000 700.000000"
 preserveAspectRatio="xMidYMid meet">
<metadata>
Created by potrace 1.14, written by Peter Selinger 2001-2017
</metadata>
<g transform="translate(0.000000,700.000000) scale(0.100000,-0.100000)"
fill="#000000" stroke="none">
<path d="M1455 6193 c-4 -32 -9 -74 -11 -93 -2 -19 -6 -53 -10 -75 -7 -52 -11
-78 -19 -145 -4 -30 -9 -62 -10 -70 -3 -14 -11 -80 -21 -165 -2 -22 -7 -51 -9
-65 -3 -14 -7 -50 -10 -80 -3 -30 -10 -82 -15 -115 -5 -33 -12 -85 -15 -115
-3 -30 -8 -68 -11 -85 -3 -16 -7 -43 -9 -60 -13 -120 -17 -150 -20 -155 -2 -3
-6 -39 -10 -80 -4 -41 -8 -77 -10 -80 -2 -3 -6 -34 -10 -70 -3 -36 -8 -72 -10
-80 -2 -8 -7 -40 -10 -70 -4 -30 -24 -190 -46 -355 -44 -337 -47 -360 -54
-412 -2 -21 -9 -76 -15 -123 -6 -47 -14 -103 -16 -125 -3 -22 -7 -51 -10 -65
-2 -14 -13 -97 -24 -185 -11 -88 -23 -177 -26 -197 -6 -43 -10 -80 -20 -158
-4 -30 -8 -62 -9 -70 -2 -9 -6 -43 -10 -75 -4 -33 -9 -68 -11 -79 -2 -10 -6
-44 -9 -75 -3 -31 -8 -67 -10 -81 -8 -45 -14 -84 -20 -140 -3 -30 -8 -66 -10
-80 -2 -14 -7 -50 -10 -80 -4 -30 -9 -63 -10 -72 -2 -9 -6 -43 -10 -75 -3 -32
-8 -69 -10 -83 -6 -41 -14 -102 -20 -155 -3 -27 -8 -61 -10 -75 -5 -30 -53
-397 -61 -460 -3 -25 -7 -56 -9 -70 -5 -31 -11 -80 -25 -190 -6 -47 -13 -102
-16 -122 -3 -21 -7 -52 -9 -70 -3 -18 -7 -55 -10 -83 -3 -27 -8 -60 -10 -71
l-5 -22 519 0 519 0 7 77 c4 42 8 83 10 91 1 8 6 51 10 95 4 44 8 87 10 96 2
8 6 49 9 91 4 41 8 84 10 94 2 11 7 53 11 94 3 41 8 86 10 100 2 14 7 59 10
100 4 41 9 83 10 92 2 9 6 48 10 85 3 37 7 84 10 103 12 101 16 140 20 190 3
30 7 70 9 90 3 19 8 64 11 100 4 36 8 76 10 90 2 14 6 54 10 90 3 36 8 81 10
100 7 59 27 243 30 280 4 51 15 150 20 190 3 19 7 60 10 90 5 53 9 89 19 175
3 22 8 74 11 115 4 41 9 83 11 93 2 10 6 58 9 105 8 106 17 126 37 86 11 -22
313 -549 369 -644 21 -36 108 -189 131 -230 14 -25 60 -106 103 -180 43 -74
95 -164 115 -200 20 -36 65 -114 100 -175 35 -60 73 -128 85 -151 13 -22 35
-59 49 -82 14 -23 26 -44 26 -47 0 -3 19 -38 43 -78 24 -39 115 -197 203 -350
87 -152 161 -277 164 -277 5 0 295 500 441 759 14 25 71 125 126 221 55 96
110 191 121 210 10 19 115 202 232 405 116 204 226 395 242 425 17 30 39 66
48 80 9 14 19 30 21 35 11 30 173 305 176 301 5 -5 10 -36 18 -126 3 -36 8
-76 10 -90 2 -14 7 -59 10 -100 3 -41 8 -86 10 -100 4 -25 11 -87 20 -182 3
-29 7 -69 10 -88 5 -40 11 -97 20 -190 6 -65 9 -91 20 -185 3 -27 8 -70 10
-95 3 -25 7 -65 9 -90 3 -25 8 -74 11 -110 3 -36 8 -76 10 -90 2 -14 7 -54 10
-90 4 -36 8 -76 10 -90 2 -14 7 -59 10 -100 4 -41 9 -83 11 -94 2 -10 6 -51 9
-90 3 -40 7 -81 9 -92 2 -10 7 -50 10 -89 4 -38 9 -88 11 -110 9 -82 31 -291
41 -385 3 -30 7 -69 9 -85 1 -17 6 -62 10 -100 4 -39 9 -77 11 -85 1 -8 3 -30
3 -47 l1 -32 518 2 c510 2 517 2 515 22 -1 11 -5 45 -8 75 -4 30 -9 69 -10 87
-2 17 -7 51 -10 75 -7 49 -10 71 -26 188 -14 109 -17 134 -24 195 -4 28 -8 57
-10 65 -2 8 -7 44 -10 80 -3 36 -8 72 -10 80 -2 8 -6 38 -10 65 -3 28 -8 66
-10 85 -3 19 -7 58 -10 85 -3 28 -8 57 -10 65 -2 8 -7 43 -10 77 -3 34 -8 70
-10 81 -2 10 -6 43 -10 73 -4 30 -9 68 -11 84 -2 17 -8 66 -14 110 -6 44 -12
91 -14 105 -2 14 -7 51 -11 84 -4 32 -8 68 -10 80 -4 22 -13 95 -21 156 -2 19
-6 51 -9 70 -3 19 -7 58 -11 85 -3 28 -7 61 -9 75 -2 14 -6 45 -10 70 -3 25
-10 79 -16 120 -5 41 -12 89 -14 105 -2 17 -6 48 -9 70 -3 22 -8 58 -11 80 -3
22 -9 76 -15 120 -6 44 -12 98 -15 120 -3 22 -7 56 -10 75 -3 19 -7 52 -10 73
-3 20 -7 52 -9 70 -3 17 -12 88 -21 157 -8 69 -18 141 -21 160 -4 30 -22 169
-39 295 -3 22 -7 58 -10 80 -3 22 -8 58 -11 80 -2 22 -7 51 -9 65 -2 14 -13
99 -25 190 -20 160 -23 184 -35 273 -19 140 -25 187 -30 227 -23 184 -56 436
-61 470 -7 47 -14 99 -18 135 -15 134 -31 224 -37 218 -4 -5 -188 -309 -410
-678 -221 -368 -410 -683 -420 -700 -10 -16 -30 -50 -44 -75 -14 -25 -144
-243 -290 -485 -146 -242 -265 -440 -265 -440 0 -1 -45 -75 -99 -166 -55 -90
-130 -215 -168 -278 -37 -63 -78 -130 -90 -150 -13 -20 -34 -56 -48 -81 -34
-59 -140 -235 -172 -284 l-25 -39 -53 89 c-30 49 -60 100 -68 114 -11 19 -572
957 -616 1030 -5 8 -62 103 -126 210 -65 107 -128 211 -140 230 -12 19 -246
409 -520 865 -273 457 -500 834 -505 838 -4 5 -11 -18 -15 -50z"/>
</g>
</svg>
