<?xml version="1.0" standalone="no"?>
<!DOCTYPE svg PUBLIC "-//W3C//DTD SVG 20010904//EN"
 "http://www.w3.org/TR/2001/REC-SVG-20010904/DTD/svg10.dtd">
<svg version="1.0" xmlns="http://www.w3.org/2000/svg"
 width="700.000000pt" height="700.000000pt" viewBox="0 0 700.000000 700.000000"
 preserveAspectRatio="xMidYMid meet">
<metadata>
Created by potrace 1.14, written by Peter Selinger 2001-2017
</metadata>
<g transform="translate(0.000000,700.000000) scale(0.100000,-0.100000)"
fill="#000000" stroke="none">
<path d="M0 3500 l0 -3500 3500 0 3500 0 0 3500 0 3500 -3500 0 -3500 0 0
-3500z m2986 1999 c430 -43 741 -246 895 -584 19 -41 36 -74 39 -74 3 0 25 30
50 67 24 37 99 122 165 188 168 170 325 269 539 339 166 54 274 69 496 69 204
0 294 -11 445 -56 378 -111 632 -414 735 -878 54 -243 53 -209 57 -1697 l4
-1383 -556 0 -555 0 0 1193 c0 710 -4 1250 -10 1334 -28 388 -155 590 -410
654 -78 20 -278 17 -359 -5 -213 -58 -379 -224 -445 -446 -45 -150 -46 -178
-46 -1487 l0 -1243 -550 0 -550 0 0 1209 c0 735 -4 1257 -10 1334 -31 376
-159 576 -410 638 -70 18 -268 17 -340 0 -30 -7 -93 -31 -140 -53 -200 -95
-323 -293 -360 -579 -5 -44 -10 -580 -10 -1311 l0 -1238 -535 0 -535 0 0 1965
0 1965 535 0 535 0 0 -287 0 -287 45 73 c274 444 702 638 1281 580z"/>
</g>
</svg>
