<?xml version="1.0" encoding="utf-8"?>
<!-- Generator: Adobe Illustrator 28.0.0, SVG Export Plug-In . SVG Version: 6.00 Build 0)  -->
<svg version="1.1" id="Layer_1" xmlns="http://www.w3.org/2000/svg" xmlns:xlink="http://www.w3.org/1999/xlink" x="0px" y="0px"
	 width="31.128px" height="12.12px" viewBox="0 0 31.128 12.12" enable-background="new 0 0 31.128 12.12" xml:space="preserve">
<g>
	<path d="M7.56,9.48H6.6V6.12c0-0.472-0.086-0.82-0.258-1.044C6.17,4.852,5.904,4.74,5.544,4.74c-0.264,0-0.492,0.054-0.684,0.162
		C4.668,5.01,4.52,5.168,4.416,5.376S4.26,5.832,4.26,6.12v3.36H3.3V6.12c0-0.472-0.086-0.82-0.258-1.044
		C2.87,4.852,2.604,4.74,2.244,4.74c-0.264,0-0.492,0.054-0.684,0.162S1.22,5.168,1.116,5.376S0.96,5.832,0.96,6.12v3.36H0V3.96
		h0.96v0.804C1.128,4.452,1.338,4.22,1.59,4.068C1.842,3.916,2.14,3.84,2.484,3.84c0.384,0,0.714,0.09,0.99,0.27
		C3.75,4.29,3.952,4.544,4.08,4.872C4.272,4.528,4.512,4.27,4.8,4.098C5.088,3.926,5.416,3.84,5.784,3.84
		c0.376,0,0.696,0.084,0.96,0.252S7.21,4.506,7.35,4.83C7.49,5.154,7.56,5.544,7.56,6V9.48z"/>
	<path d="M10.081,12.12H9l1.512-3.42L8.4,3.96h1.14l1.585,4.211l1.475-4.211h1.08L10.081,12.12z"/>
	<path d="M15.192,8.256c0.144,0.144,0.31,0.258,0.498,0.342s0.394,0.126,0.618,0.126c0.272,0,0.486-0.062,0.642-0.186
		c0.156-0.124,0.234-0.294,0.234-0.51c0-0.192-0.062-0.354-0.186-0.486s-0.282-0.244-0.474-0.336
		c-0.192-0.092-0.396-0.178-0.612-0.258c-0.24-0.096-0.482-0.21-0.726-0.342s-0.448-0.304-0.612-0.516
		c-0.164-0.212-0.246-0.478-0.246-0.798c0-0.328,0.086-0.6,0.258-0.816c0.172-0.216,0.396-0.376,0.672-0.48
		c0.276-0.104,0.562-0.156,0.858-0.156s0.574,0.048,0.834,0.144c0.26,0.096,0.49,0.224,0.69,0.384c0.2,0.16,0.356,0.344,0.468,0.552
		L17.34,5.412c-0.152-0.208-0.342-0.38-0.57-0.516c-0.228-0.136-0.486-0.204-0.774-0.204c-0.2,0-0.372,0.044-0.516,0.132
		c-0.144,0.088-0.216,0.224-0.216,0.408c0,0.144,0.056,0.272,0.168,0.384c0.112,0.112,0.256,0.212,0.432,0.3
		c0.176,0.088,0.36,0.172,0.552,0.252c0.32,0.128,0.612,0.266,0.876,0.414c0.264,0.148,0.474,0.326,0.63,0.534
		c0.156,0.208,0.234,0.476,0.234,0.804c0,0.48-0.174,0.88-0.522,1.2C17.286,9.44,16.828,9.6,16.26,9.6
		c-0.368,0-0.7-0.066-0.996-0.198c-0.296-0.132-0.546-0.302-0.75-0.51s-0.358-0.42-0.462-0.636l0.756-0.468
		C14.92,7.956,15.048,8.112,15.192,8.256z"/>
	<path d="M20.19,9.234c-0.396-0.244-0.704-0.582-0.924-1.014c-0.22-0.432-0.33-0.932-0.33-1.5c0-0.576,0.114-1.08,0.342-1.512
		s0.548-0.768,0.96-1.008c0.412-0.24,0.89-0.36,1.434-0.36s1.01,0.114,1.398,0.342c0.388,0.228,0.686,0.554,0.894,0.978
		c0.208,0.424,0.312,0.928,0.312,1.512c0,0.056-0.002,0.114-0.006,0.174c-0.004,0.06-0.006,0.098-0.006,0.114h-4.716V6.144
		l3.684,0.016c0,0-0.066-0.472-0.198-0.712c-0.132-0.24-0.314-0.428-0.546-0.564c-0.232-0.136-0.504-0.204-0.816-0.204
		c-0.368,0-0.682,0.078-0.942,0.234c-0.26,0.156-0.46,0.38-0.6,0.672c-0.14,0.292-0.214,0.65-0.222,1.074
		c0,0.432,0.068,0.8,0.204,1.104c0.136,0.304,0.336,0.536,0.6,0.696c0.264,0.16,0.584,0.24,0.96,0.24s0.708-0.082,0.996-0.246
		S23.2,8.04,23.4,7.704l0.78,0.492c-0.288,0.464-0.65,0.814-1.086,1.05S22.144,9.6,21.552,9.6C21.04,9.6,20.586,9.478,20.19,9.234z"
		/>
	<path d="M26.556,0.12v9.36h-0.96V0.12H26.556z"/>
	<path d="M30.696,3.96v0.9h-2.76v-0.9H30.696z M30.318,1.014c-0.108-0.036-0.21-0.054-0.306-0.054c-0.12,0-0.222,0.034-0.306,0.102
		s-0.15,0.182-0.198,0.342c-0.048,0.16-0.072,0.372-0.072,0.636v7.44h-0.96V1.92c0-0.44,0.064-0.8,0.192-1.08
		c0.128-0.28,0.31-0.49,0.546-0.63C29.45,0.07,29.736,0,30.072,0c0.176,0,0.332,0.024,0.468,0.072
		c0.136,0.048,0.254,0.108,0.354,0.18c0.1,0.072,0.178,0.148,0.234,0.228L30.6,1.272C30.52,1.136,30.426,1.05,30.318,1.014z"/>
</g>
</svg>
