<svg version="1.1" id="Layer_1" xmlns="http://www.w3.org/2000/svg" xmlns:xlink="http://www.w3.org/1999/xlink" x="0px" y="0px"
	 width="30.744px" height="11.987px" viewBox="0 0 30.744 11.987" style="enable-background:new 0 0 30.744 11.987;"
	 xml:space="preserve">
<g>
	<g>
		<path d="M8.112,9.6H7.128V5.724c0-0.386-0.121-0.695-0.37-0.947C6.261,4.272,5.493,4.269,4.942,4.8
			C4.669,5.063,4.536,5.358,4.536,5.7V9.6H3.553V5.7c0-0.354-0.122-0.654-0.373-0.914C2.683,4.27,1.901,4.271,1.377,4.796
			C1.112,5.061,0.984,5.356,0.984,5.7V9.6H0.001v-6h0.983v0.339c0.083-0.06,0.173-0.115,0.268-0.168
			c0.73-0.41,1.574-0.429,2.289,0.112c0.191,0.145,0.355,0.312,0.492,0.504c0.141-0.199,0.318-0.373,0.532-0.519
			c0.39-0.266,0.864-0.4,1.411-0.4c0.564,0,1.065,0.205,1.49,0.611c0.429,0.409,0.646,0.962,0.646,1.645V9.6z"/>
	</g>
	<g>
		<path d="M11.412,11.987c-0.959,0-1.729-0.375-2.291-1.114l-0.064-0.086l0.067-1.733L9.643,9.94c0.2,0.341,0.463,0.615,0.783,0.814
			c0.317,0.2,0.64,0.297,0.986,0.297c0.515,0,0.948-0.182,1.325-0.555c0.376-0.373,0.56-0.808,0.56-1.329V9.144
			c-0.443,0.391-1.029,0.588-1.753,0.588c-0.743,0-1.388-0.266-1.915-0.789C9.1,8.418,8.832,7.779,8.832,7.044V3.6h0.984v3.444
			c0,0.475,0.17,0.877,0.519,1.229c0.697,0.703,1.745,0.703,2.442,0c0.35-0.353,0.52-0.754,0.52-1.229V3.6h0.983v5.532
			c0,0.791-0.279,1.472-0.832,2.023C12.897,11.708,12.211,11.987,11.412,11.987z"/>
	</g>
	<g>
		<path d="M16.464,9.731c-0.366,0-0.712-0.081-1.029-0.242c-0.329-0.166-0.576-0.396-0.733-0.68l-0.037-0.146V6.696l0.573,1.268
			c0.256,0.567,0.635,0.832,1.19,0.832c0.343,0,0.621-0.101,0.85-0.307c0.22-0.198,0.327-0.406,0.327-0.636
			c0-0.246-0.065-0.444-0.201-0.605c-0.156-0.188-0.351-0.352-0.576-0.486l-0.762-0.449c-0.278-0.163-0.522-0.366-0.724-0.604
			C15.115,5.442,15,5.126,15,4.77c0-0.368,0.154-0.695,0.445-0.947c0.578-0.494,1.608-0.525,2.225,0.151l0.078,0.086v1.6
			l-0.55-0.825c-0.201-0.302-0.431-0.442-0.722-0.442c-0.138,0-0.252,0.042-0.358,0.133c-0.093,0.079-0.135,0.164-0.135,0.275
			c0,0.113,0.058,0.223,0.176,0.333c0.162,0.151,0.36,0.292,0.588,0.418c0.258,0.144,0.517,0.296,0.776,0.459
			c0.287,0.179,0.535,0.411,0.737,0.689c0.218,0.3,0.327,0.646,0.327,1.028c0,0.557-0.212,1.036-0.63,1.426
			C17.548,9.537,17.045,9.731,16.464,9.731z"/>
	</g>
	<g>
		<path d="M22.128,9.743H22.02c-0.841,0-1.58-0.318-2.199-0.946c-0.618-0.627-0.932-1.37-0.932-2.209
			c0-0.84,0.312-1.576,0.929-2.187c0.614-0.611,1.384-0.921,2.287-0.921c0.908,0,1.697,0.364,2.346,1.082l0.192,0.213l-3.721,3.674
			c0.363,0.238,0.711,0.358,1.038,0.358c0.432,0,0.804-0.095,1.14-0.29c0.339-0.196,0.623-0.462,0.844-0.79l0.549-0.814v1.711
			L24.414,8.71C23.789,9.396,23.021,9.743,22.128,9.743z M22.002,4.416c-0.559,0-1.043,0.213-1.48,0.649
			c-0.437,0.438-0.649,0.924-0.649,1.486c0,0.46,0.12,0.865,0.364,1.229l3.01-2.988C22.871,4.54,22.461,4.416,22.002,4.416z"/>
	</g>
	<g>
		<path d="M27.721,9.708h-0.3c-0.646,0-1.203-0.22-1.659-0.652c-0.46-0.438-0.693-1.001-0.693-1.676V0h0.983v7.38
			c0,0.408,0.13,0.734,0.397,0.998c0.269,0.266,0.586,0.395,0.972,0.395h0.3V9.708z"/>
	</g>
	<g>
		<path d="M29.064,9.6H28.08V3.744c0-0.675,0.233-1.238,0.694-1.676c0.455-0.433,1.013-0.652,1.658-0.652h0.3v0.936h-0.3
			c-0.386,0-0.703,0.129-0.972,0.395c-0.268,0.263-0.397,0.59-0.397,0.998V6.6h1.681v0.936h-1.681V9.6z"/>
	</g>
</g>
</svg>
