<?xml version="1.0" encoding="utf-8"?>
<!-- Generator: Adobe Illustrator 28.1.0, SVG Export Plug-In . SVG Version: 6.00 Build 0)  -->
<svg version="1.2" baseProfile="tiny" id="Layer_1" xmlns="http://www.w3.org/2000/svg" xmlns:xlink="http://www.w3.org/1999/xlink"
	 x="0px" y="0px" width="34.092px" height="12.168px" viewBox="0 0 34.092 12.168" overflow="visible" xml:space="preserve">
<g>
	<path fill="#FFFFFF" d="M7.404,4.134C7.148,3.97,6.816,3.888,6.408,3.888c-0.376,0-0.71,0.08-1.002,0.24S4.868,4.524,4.668,4.836
		c-0.12-0.312-0.312-0.548-0.576-0.708c-0.264-0.16-0.6-0.24-1.008-0.24c-0.368,0-0.684,0.08-0.948,0.24
		C1.872,4.288,1.66,4.52,1.5,4.824V4.008H0v5.52h1.5v-3.36c0-0.24,0.04-0.446,0.12-0.618c0.08-0.172,0.192-0.3,0.336-0.384
		S2.268,5.04,2.46,5.04c0.288,0,0.496,0.094,0.624,0.282s0.192,0.47,0.192,0.846v3.36h1.548v-3.36c0-0.24,0.04-0.446,0.12-0.618
		c0.08-0.172,0.192-0.3,0.336-0.384S5.592,5.04,5.784,5.04c0.288,0,0.496,0.094,0.624,0.282S6.6,5.792,6.6,6.168v3.36h1.56V6
		c0-0.448-0.062-0.83-0.186-1.146C7.85,4.538,7.66,4.298,7.404,4.134z"/>
	<polygon fill="#FFFFFF" points="11.908,7.431 10.523,4.008 8.796,4.008 11.088,8.976 9.696,12.168 11.292,12.168 14.892,4.008 
		13.271,4.008 	"/>
	<path fill="#FFFFFF" d="M18.953,6.63c-0.252-0.14-0.526-0.266-0.822-0.378c-0.239-0.104-0.454-0.192-0.642-0.264
		c-0.188-0.072-0.332-0.154-0.432-0.246c-0.101-0.092-0.15-0.198-0.15-0.318c0-0.136,0.05-0.238,0.15-0.306
		c0.1-0.068,0.237-0.102,0.414-0.102c0.264,0,0.533,0.068,0.81,0.204c0.276,0.136,0.514,0.312,0.714,0.528l0.685-0.96
		c-0.177-0.176-0.381-0.33-0.612-0.462c-0.232-0.132-0.484-0.238-0.756-0.318c-0.272-0.08-0.564-0.12-0.876-0.12
		c-0.368,0-0.702,0.058-1.002,0.174c-0.3,0.116-0.538,0.288-0.714,0.516s-0.264,0.506-0.264,0.834c0,0.344,0.077,0.626,0.233,0.846
		c0.156,0.22,0.354,0.396,0.594,0.528c0.24,0.132,0.488,0.246,0.744,0.342c0.271,0.088,0.496,0.172,0.672,0.252
		s0.31,0.17,0.402,0.27c0.092,0.1,0.138,0.222,0.138,0.366c0,0.16-0.056,0.286-0.168,0.378c-0.112,0.092-0.272,0.138-0.479,0.138
		c-0.16,0-0.33-0.032-0.511-0.096c-0.18-0.064-0.37-0.162-0.569-0.294c-0.2-0.132-0.416-0.306-0.648-0.522l-0.756,0.972
		c0.208,0.2,0.442,0.386,0.702,0.558s0.552,0.31,0.876,0.414C17.01,9.667,17.367,9.72,17.76,9.72c0.632,0,1.128-0.154,1.487-0.462
		c0.36-0.308,0.54-0.738,0.54-1.29c0-0.336-0.076-0.608-0.228-0.816C19.407,6.944,19.205,6.77,18.953,6.63z"/>
	<path fill="#FFFFFF" d="M25.026,4.218c-0.429-0.22-0.946-0.33-1.555-0.33c-0.607,0-1.136,0.118-1.584,0.354
		c-0.448,0.236-0.794,0.568-1.038,0.996c-0.244,0.428-0.365,0.938-0.365,1.53c0,0.584,0.121,1.09,0.365,1.518
		c0.244,0.428,0.59,0.762,1.038,1.002c0.448,0.24,0.973,0.36,1.572,0.36c0.664,0,1.233-0.13,1.71-0.39
		c0.476-0.26,0.858-0.65,1.146-1.17l-1.355-0.42c-0.16,0.264-0.362,0.462-0.606,0.594c-0.244,0.132-0.538,0.198-0.882,0.198
		c-0.304,0-0.563-0.068-0.78-0.204c-0.216-0.136-0.378-0.332-0.485-0.588c-0.068-0.16-0.106-0.349-0.132-0.552h4.241
		c0.009-0.048,0.015-0.112,0.019-0.192s0.006-0.156,0.006-0.228c0-0.592-0.112-1.098-0.336-1.518S25.454,4.438,25.026,4.218z
		 M22.686,5.178c0.204-0.132,0.458-0.198,0.763-0.198c0.247,0,0.464,0.056,0.647,0.168c0.185,0.112,0.326,0.264,0.426,0.456
		c0.081,0.155,0.121,0.344,0.136,0.552h-2.551c0.028-0.141,0.063-0.274,0.111-0.39C22.326,5.506,22.481,5.31,22.686,5.178z"/>
	<rect x="27.516" y="0.168" fill="#FFFFFF" width="1.561" height="9.36"/>
	<path fill="#FFFFFF" d="M32.292,2.316c0-0.208,0.023-0.38,0.071-0.516c0.049-0.136,0.114-0.234,0.198-0.294s0.187-0.09,0.307-0.09
		c0.096,0,0.193,0.022,0.294,0.066c0.1,0.044,0.189,0.126,0.27,0.246l0.66-1.164c-0.072-0.08-0.17-0.164-0.294-0.252
		s-0.274-0.162-0.45-0.222S32.96,0,32.712,0c-0.416,0-0.769,0.078-1.057,0.234C31.368,0.39,31.151,0.612,31.008,0.9
		c-0.145,0.288-0.216,0.644-0.216,1.068v2.04h-0.324v1.308h0.324v4.212h1.5V5.316H33.6V4.008h-1.308V2.316z"/>
</g>
</svg>
