<?xml version="1.0" encoding="utf-8"?>
<!-- Generator: Adobe Illustrator 28.1.0, SVG Export Plug-In . SVG Version: 6.00 Build 0)  -->
<svg version="1.2" baseProfile="tiny" id="Layer_1" xmlns="http://www.w3.org/2000/svg" xmlns:xlink="http://www.w3.org/1999/xlink"
	 x="0px" y="0px" width="34.092px" height="34.101px" viewBox="0 0 34.092 34.101" overflow="visible" xml:space="preserve">
<rect fill="#FFFFFF" width="34.092" height="34.092"/>
<g>
	<path d="M7.873,15.195c-0.243-0.156-0.559-0.234-0.948-0.234c-0.358,0-0.675,0.076-0.953,0.229
		c-0.278,0.152-0.512,0.377-0.702,0.674c-0.114-0.297-0.297-0.521-0.548-0.674c-0.251-0.152-0.571-0.229-0.959-0.229
		c-0.35,0-0.651,0.076-0.902,0.229c-0.251,0.152-0.453,0.373-0.605,0.662v-0.776H0.829v5.251h1.427V17.13
		c0-0.229,0.038-0.424,0.114-0.588c0.076-0.164,0.183-0.285,0.32-0.365c0.137-0.08,0.297-0.12,0.479-0.12
		c0.274,0,0.472,0.089,0.594,0.268c0.122,0.179,0.183,0.447,0.183,0.805v3.196h1.473V17.13c0-0.229,0.038-0.424,0.114-0.588
		c0.076-0.164,0.183-0.285,0.32-0.365s0.297-0.12,0.479-0.12c0.274,0,0.472,0.089,0.594,0.268c0.122,0.179,0.183,0.447,0.183,0.805
		v3.196h1.484V16.97c0-0.426-0.059-0.79-0.177-1.09C8.297,15.58,8.116,15.351,7.873,15.195z"/>
	<polygon points="12.158,18.332 10.841,15.075 9.197,15.075 11.378,19.802 10.053,22.838 11.571,22.838 14.996,15.075 
		13.455,15.075 	"/>
	<path d="M18.86,17.57c-0.24-0.133-0.501-0.253-0.782-0.36c-0.228-0.099-0.432-0.183-0.61-0.251
		c-0.178-0.068-0.316-0.146-0.411-0.234c-0.096-0.087-0.143-0.188-0.143-0.302c0-0.129,0.047-0.226,0.143-0.291
		c0.095-0.065,0.226-0.097,0.394-0.097c0.251,0,0.507,0.065,0.77,0.194c0.263,0.13,0.489,0.297,0.679,0.503l0.651-0.914
		c-0.168-0.167-0.362-0.314-0.583-0.439c-0.221-0.125-0.461-0.226-0.719-0.302c-0.259-0.076-0.537-0.114-0.833-0.114
		c-0.35,0-0.668,0.055-0.953,0.166c-0.285,0.11-0.512,0.274-0.679,0.491c-0.167,0.217-0.251,0.482-0.251,0.793
		c0,0.327,0.073,0.596,0.222,0.805c0.149,0.21,0.336,0.377,0.565,0.502c0.229,0.126,0.465,0.234,0.708,0.326
		c0.258,0.084,0.472,0.164,0.639,0.24s0.295,0.162,0.383,0.257c0.087,0.095,0.131,0.211,0.131,0.348c0,0.152-0.053,0.272-0.16,0.36
		c-0.107,0.087-0.259,0.131-0.456,0.131c-0.152,0-0.314-0.03-0.486-0.091c-0.171-0.061-0.352-0.154-0.542-0.28
		c-0.19-0.125-0.396-0.291-0.617-0.497l-0.719,0.925c0.198,0.19,0.421,0.367,0.668,0.531c0.247,0.164,0.525,0.295,0.833,0.394
		c0.308,0.098,0.648,0.148,1.022,0.148c0.601,0,1.073-0.146,1.415-0.439c0.343-0.293,0.514-0.702,0.514-1.227
		c0-0.32-0.072-0.578-0.216-0.776C19.292,17.868,19.1,17.703,18.86,17.57z"/>
	<path d="M24.638,15.275c-0.408-0.209-0.9-0.314-1.479-0.314c-0.578,0-1.08,0.112-1.507,0.337c-0.426,0.225-0.755,0.541-0.988,0.948
		c-0.232,0.407-0.347,0.892-0.347,1.456c0,0.556,0.115,1.037,0.347,1.444c0.232,0.407,0.561,0.725,0.988,0.953
		c0.426,0.229,0.925,0.343,1.496,0.343c0.632,0,1.173-0.124,1.627-0.371c0.452-0.247,0.817-0.618,1.09-1.113l-1.29-0.399
		c-0.152,0.251-0.345,0.439-0.577,0.565c-0.232,0.126-0.512,0.189-0.839,0.189c-0.289,0-0.536-0.065-0.742-0.194
		c-0.205-0.129-0.36-0.316-0.462-0.559c-0.064-0.152-0.101-0.332-0.125-0.525h4.035c0.008-0.046,0.014-0.106,0.018-0.183
		c0.004-0.076,0.006-0.148,0.006-0.217c0-0.563-0.107-1.045-0.32-1.444S25.045,15.484,24.638,15.275z M22.411,16.188
		C22.605,16.063,22.847,16,23.137,16c0.235,0,0.441,0.053,0.616,0.16c0.176,0.106,0.31,0.251,0.405,0.434
		c0.077,0.148,0.115,0.327,0.129,0.525h-2.427c0.027-0.134,0.06-0.261,0.106-0.371C22.069,16.5,22.217,16.314,22.411,16.188z"/>
	<rect x="27.006" y="11.422" width="1.485" height="8.905"/>
	<path d="M31.55,13.466c0-0.198,0.022-0.361,0.068-0.491c0.046-0.129,0.109-0.223,0.189-0.28c0.08-0.057,0.177-0.085,0.292-0.085
		c0.091,0,0.184,0.021,0.28,0.063c0.095,0.042,0.18,0.12,0.256,0.234l0.628-1.107c-0.069-0.076-0.162-0.156-0.28-0.24
		c-0.118-0.084-0.261-0.154-0.428-0.211c-0.167-0.057-0.369-0.085-0.605-0.085c-0.396,0-0.731,0.074-1.005,0.223
		c-0.273,0.148-0.479,0.36-0.616,0.634c-0.138,0.274-0.205,0.613-0.205,1.016v1.941h-0.308v1.244h0.308v4.007h1.427V16.32h1.244
		v-1.244H31.55V13.466z"/>
</g>
</svg>
